<svg width="28" height="28" viewBox="0 0 28 28" fill="none" xmlns="http://www.w3.org/2000/svg">
<path d="M0.191092 0.495916C0.145739 0.675507 0.100386 1.66326 0.145739 2.69592L0.213769 4.58163H2.36804H4.52232L4.59035 3.72857L4.65838 2.89796H6.01897H7.35689V8.06122V13.2245H6.01897H4.65838L4.59035 12.3714L4.52232 11.5408H2.36804H0.213769V13.6735V15.8061H2.36804H4.52232L4.59035 14.9531L4.65838 14.1224H6.01897H7.35689V19.2857V24.449H6.01897H4.65838L4.59035 23.5959L4.52232 22.7653H2.36804H0.213769V24.898V27.0306H2.36804H4.52232L4.59035 26.2L4.65838 25.3694L6.40448 25.302L8.15057 25.2347L8.2186 22.3612L8.28663 19.5102H9.85132H11.416L11.484 20.3408L11.5521 21.1939H13.7063H15.8606L15.9286 20.3633L15.9967 19.5327L17.2892 19.4653L18.5818 19.398L18.6498 16.749L18.7179 14.1224H20.3052C21.7338 14.1224 21.8926 14.1673 22.074 14.6163C22.4822 15.649 23.4119 16.2551 24.6138 16.2551C25.5662 16.2551 25.8156 16.1429 26.4506 15.5143C27.0855 14.8857 27.1989 14.6388 27.1989 13.6959C27.1989 12.4612 26.7454 11.7204 26.2692 12.1245C26.0424 12.3041 26.0197 12.4837 26.1785 12.7755C26.8134 13.9653 25.929 15.4694 24.5911 15.4694C23.5706 15.4694 22.6863 14.549 22.845 13.6061C22.913 13.202 23.0037 12.6857 23.0491 12.4388C23.1625 11.7653 22.5048 11.8775 22.142 12.5959C21.8699 13.202 21.7565 13.2245 20.2825 13.2245H18.7179L18.6498 10.351L18.5818 7.5L17.2892 7.43265L15.9967 7.3653L15.9286 6.53469L15.8606 5.70408H13.7063H11.5521L11.484 6.53469L11.416 7.38775H9.85132H8.28663L8.2186 4.73877L8.15057 2.11224L6.40448 2.0449L4.65838 1.97755L4.59035 1.14694L4.52232 0.316324L2.4134 0.248977C0.80336 0.204079 0.281799 0.248977 0.191092 0.495916ZM3.72864 2.44898V3.79592H2.36804H1.00745V2.44898V1.10204H2.36804H3.72864V2.44898ZM15.0669 7.83673V9.18367H13.7063H12.3457V7.83673V6.48979H13.7063H15.0669V7.83673ZM11.484 9.11632L11.5521 9.96938H13.7063H15.8606L15.9286 9.11632C15.9967 8.30816 16.0193 8.28571 16.9037 8.28571H17.7881V13.449V18.6122H16.9037C16.0193 18.6122 15.9967 18.5898 15.9286 17.7592L15.8606 16.9286H13.7063H11.5521L11.484 17.7592L11.416 18.6122H9.82864H8.26396V13.449V8.28571H9.82864H11.416L11.484 9.11632ZM3.72864 13.6735V15.0204H2.36804H1.00745V13.6735V12.3265H2.36804H3.72864V13.6735ZM15.0669 19.0612V20.4082H13.7063H12.3457V19.0612V17.7143H13.7063H15.0669V19.0612ZM3.72864 24.898V26.2449H2.36804H1.00745V24.898V23.551H2.36804H3.72864V24.898Z" fill="black"/>
<path d="M22.0512 6.15305C20.9401 6.71428 20.0557 7.2755 20.0557 7.38775C20.0557 7.49999 20.9854 8.06122 22.0966 8.62244L24.1374 9.63265V11.6531C24.1374 13.5388 24.1601 13.6735 24.591 13.6735C25.0445 13.6735 25.0445 13.5612 24.9992 9.45305C24.9085 4.46938 25.0672 4.62652 22.0512 6.15305ZM24.0694 8.4204C23.956 8.53265 21.643 7.56734 21.643 7.4102C21.643 7.3204 22.1873 7.02856 22.8449 6.71428L24.0241 6.15305L24.0921 7.25305C24.1374 7.83673 24.1148 8.3755 24.0694 8.4204Z" fill="black"/>
</svg>
